<svg id="Группа_2" data-name="Группа 2" xmlns="http://www.w3.org/2000/svg" width="185.656" height="185.656" viewBox="0 0 185.656 185.656">
  <defs>
    <style>
      .cls-1 {
        fill: #d94748;
      }

      .cls-1, .cls-2 {
        fill-rule: evenodd;
      }

      .cls-2 {
        fill: #fff;
      }
    </style>
  </defs>
  <path id="Shape_1_copy_2" data-name="Shape 1 copy 2" class="cls-1" d="M637.827,636.345A92.828,92.828,0,1,1,545,729.172,92.827,92.827,0,0,1,637.827,636.345Z" transform="translate(-545 -636.344)"/>
  <path class="cls-2" d="M602.154,687.973A11.157,11.157,0,0,0,590.98,699.16v41.915a11.146,11.146,0,0,0,11.174,11.177H627.3v8.376H616.125a2.8,2.8,0,0,0-2.8,2.8v5.593h50.306v-5.593a2.8,2.8,0,0,0-2.8-2.8H649.663v-8.376h25.146a11.146,11.146,0,0,0,11.174-11.177V699.16a11.157,11.157,0,0,0-11.174-11.187H602.154Zm2.8,11.187h67.06a2.782,2.782,0,0,1,2.8,2.785v36.336a2.791,2.791,0,0,1-2.8,2.794h-67.06a2.8,2.8,0,0,1-2.8-2.794V701.945a2.79,2.79,0,0,1,2.8-2.785h0Z" transform="translate(-545 -636.344)"/>
</svg>
