<svg id="Группа_1" data-name="Группа 1" xmlns="http://www.w3.org/2000/svg" width="185.656" height="185.656" viewBox="0 0 185.656 185.656">
  <metadata><?xpacket begin="﻿" id="W5M0MpCehiHzreSzNTczkc9d"?>
<x:xmpmeta xmlns:x="adobe:ns:meta/" x:xmptk="Adobe XMP Core 5.6-c138 79.159824, 2016/09/14-01:09:01        ">
   <rdf:RDF xmlns:rdf="http://www.w3.org/1999/02/22-rdf-syntax-ns#">
      <rdf:Description rdf:about=""/>
   </rdf:RDF>
</x:xmpmeta>
                                                                                                    
                                                                                                    
                                                                                                    
                                                                                                    
                                                                                                    
                                                                                                    
                                                                                                    
                                                                                                    
                                                                                                    
                                                                                                    
                                                                                                    
                                                                                                    
                                                                                                    
                                                                                                    
                                                                                                    
                                                                                                    
                                                                                                    
                                                                                                    
                                                                                                    
                                                                                                    
                           
<?xpacket end="w"?></metadata>
<defs>
    <style>
      .cls-1 {
        fill: #5094f2;
      }

      .cls-1, .cls-2 {
        fill-rule: evenodd;
      }

      .cls-2 {
        fill: #fff;
      }
    </style>
  </defs>
  <path id="Shape_1_copy" data-name="Shape 1 copy" class="cls-1" d="M269.827,636.345A92.828,92.828,0,1,1,177,729.172,92.827,92.827,0,0,1,269.827,636.345Z" transform="translate(-177 -636.344)"/>
  <path class="cls-2" d="M310.69,700.116l-6.569,10.544-32.789-20.414L277.9,679.7a9.937,9.937,0,0,1,13.686-3.185l15.927,9.916A9.937,9.937,0,0,1,310.69,700.116Zm-39.421,63.192L238.552,742.9l30.284-48.542,32.719,20.426Zm4.417-56.66a3.172,3.172,0,0,0-4.4.871l-21.53,34.487a3.155,3.155,0,0,0,1.162,4.328,3.2,3.2,0,0,0,4.405-.84L276.848,711A3.2,3.2,0,0,0,275.686,706.648Zm11.854,7.4a3.189,3.189,0,0,0-4.405.868l-21.534,34.5a3.3,3.3,0,0,0,5.578,3.478l21.535-34.482A3.217,3.217,0,0,0,287.54,714.044Zm-33.731,61.2A19.714,19.714,0,0,0,235.6,763.9L235,748.686l32.69,20.4Zm-9.219-5.506a15.5,15.5,0,0,1,6.015,6.923l-14.267,6.326-0.609-15.592A15.551,15.551,0,0,1,244.59,769.736Z" transform="translate(-177 -636.344)"/>
</svg>
